<svg width="189" height="36" viewBox="0 0 189 36" fill="none" xmlns="http://www.w3.org/2000/svg">
<g clip-path="url(#clip0_1_427)">
<path d="M0 21.6159L4.05408 17.9866L8.10816 21.6159V35.3861H0V21.6159Z" fill="#111111"/>
<path d="M86.9915 21.6159L91.0455 17.9866L95.0996 21.6159V35.3861H86.9915V21.6159Z" fill="#111111"/>
<path d="M33.5176 15.9852C34.6311 15.7451 35.4876 15.238 36.1442 14.5175C36.8009 13.7969 37.1149 12.7562 37.1149 11.3685C37.1149 9.98078 36.8009 8.91333 36.1442 8.19279C35.4876 7.47226 34.6311 6.9919 33.5462 6.77841C32.4613 6.53823 31.0909 6.43149 29.4065 6.43149H23.5823V16.3322H29.3494C31.0338 16.3588 32.4327 16.2254 33.5176 15.9852ZM44.6235 31.8103C44.9376 33.0112 45.48 34.1587 46.308 35.2528L46.2509 35.413H37.6003C37.0293 34.4789 36.6296 33.4915 36.4583 32.4774C36.2584 31.4367 36.1728 29.8622 36.1728 27.6739C36.1728 25.7525 35.6589 24.3915 34.6025 23.5375C33.5747 22.6835 31.9474 22.2565 29.8062 22.2565H23.6108V35.4396H15.5027V0.587158H30.0346C33.0894 0.587158 35.6874 0.854023 37.8572 1.41444C40.027 1.97485 41.7685 3.01562 43.0818 4.56344C44.3951 6.11125 45.0518 8.29954 45.0518 11.1016C45.0518 13.1832 44.5379 14.9711 43.4815 16.4122C42.4252 17.88 40.9977 18.9741 39.1705 19.6946C40.9121 20.3351 42.1682 21.2691 42.9676 22.4967C43.767 23.7243 44.1667 25.3255 44.1667 27.2736C44.1667 29.0883 44.3095 30.6094 44.6235 31.8103Z" fill="#111111"/>
<path d="M70.5752 29.2484C71.6886 29.0883 72.5736 28.688 73.2017 28.0475C73.8298 27.407 74.1439 26.4463 74.1439 25.1387C74.1439 23.751 73.7727 22.7369 73.059 22.0697C72.3452 21.4026 71.4317 20.9756 70.3468 20.8155C69.2619 20.6554 67.8915 20.5486 66.1785 20.5486H59.4978V29.4886H65.893C67.8915 29.5153 69.4617 29.4352 70.5752 29.2484ZM59.4978 14.7043H65.1221C66.9208 14.7043 68.3483 14.6242 69.3475 14.4908C70.3468 14.3307 71.1462 13.9838 71.7743 13.3966C72.4023 12.8095 72.6878 11.8755 72.6878 10.5946C72.6878 9.31362 72.3738 8.45966 71.7743 7.84587C71.1462 7.25877 70.3468 6.85847 69.319 6.69835C68.2912 6.53823 66.9208 6.45817 65.2078 6.45817H59.5549V14.7043H59.4978ZM80.3392 20.6554C81.4812 22.0164 82.0522 23.6976 82.0522 25.7258C82.0522 28.3677 81.367 30.4226 79.9681 31.837C78.5691 33.2514 76.7419 34.2121 74.4865 34.6924C72.231 35.1728 69.4903 35.413 66.2927 35.413H51.4182V0.587158H65.5504C68.4054 0.587158 70.9178 0.827336 73.1161 1.30769C75.2859 1.78805 77.1131 2.72207 78.512 4.10977C79.9395 5.49746 80.6533 7.44557 80.6533 9.98079C80.6533 11.7955 80.1965 13.3433 79.3114 14.5975C78.4264 15.8518 77.1702 16.8392 75.5428 17.533C77.5984 18.2536 79.2258 19.2944 80.3392 20.6554Z" fill="#111111"/>
<path d="M108.689 34.6658C106.291 33.7852 104.35 32.4242 102.922 30.6362C101.466 28.8215 100.695 26.5799 100.61 23.8578L108.861 23.0039C108.861 25.3523 109.603 27.167 111.059 28.3679C112.515 29.5954 114.485 30.2092 116.997 30.2092C119.253 30.2092 121.023 29.8356 122.365 29.0617C123.706 28.2878 124.363 27.0869 124.363 25.4323C124.363 24.4983 124.078 23.7778 123.535 23.2707C122.993 22.7637 122.25 22.3634 121.308 22.0965C120.366 21.8297 118.996 21.5361 117.197 21.2159C116.512 21.1091 115.741 20.949 114.885 20.7889C112.087 20.2285 109.746 19.5613 107.861 18.7607C105.948 17.9601 104.435 16.866 103.322 15.4783C102.208 14.0906 101.637 12.356 101.637 10.2211C101.637 7.97941 102.323 6.08468 103.722 4.53686C105.092 2.98905 106.891 1.86822 109.117 1.121C111.344 0.373779 113.714 0.0268555 116.226 0.0268555C120.566 0.0268555 124.078 0.907508 126.761 2.6955C129.445 4.4568 130.987 7.28557 131.415 11.1818L123.25 12.3827C123.135 10.1143 122.479 8.45977 121.28 7.36563C120.081 6.29817 118.396 5.73775 116.169 5.73775C114.199 5.73775 112.658 6.08468 111.516 6.80521C110.374 7.52574 109.831 8.53983 109.831 9.87415C109.831 10.7281 110.145 11.422 110.773 11.9557C111.401 12.5161 112.315 12.9698 113.486 13.3167C114.656 13.6903 116.226 14.0105 118.168 14.3575C121.251 14.8645 123.849 15.4783 125.876 16.2522C127.932 16.9994 129.559 18.0936 130.787 19.5613C132.014 21.0024 132.614 22.9238 132.614 25.2989C132.614 27.9409 131.872 30.0491 130.387 31.6503C128.903 33.2515 126.99 34.3723 124.62 35.0395C122.25 35.7066 119.652 36.0535 116.797 36.0535C113.942 36.0535 111.116 35.5465 108.689 34.6658Z" fill="#111111"/>
<path d="M174.896 29.275C176.238 28.7413 177.323 27.9674 178.151 26.9266C178.979 25.8858 179.607 24.5782 180.007 23.0304C180.407 21.4826 180.606 19.8013 180.606 17.96C180.606 16.1453 180.407 14.464 179.978 12.8362C179.55 11.2083 178.951 9.92735 178.151 8.99333C176.524 6.93847 173.954 5.8977 170.443 5.8977C166.931 5.8977 164.133 6.8851 162.42 8.8599C161.592 9.79392 160.964 11.0749 160.479 12.7561C160.022 14.4374 159.765 16.172 159.765 17.96C159.765 19.828 159.965 21.5093 160.393 23.0304C160.793 24.5248 161.392 25.7791 162.135 26.7665C163.02 27.8873 164.133 28.7413 165.532 29.2483C166.931 29.7821 168.501 30.0489 170.214 30.0489C172.013 30.0489 173.583 29.8087 174.896 29.275ZM160.108 33.8918C157.281 32.5041 155.14 30.4492 153.655 27.7539C152.171 25.0586 151.428 21.8028 151.428 17.96C151.428 14.4374 152.171 11.315 153.655 8.61972C155.14 5.92439 157.281 3.78947 160.108 2.26835C162.934 0.74722 166.303 0 170.243 0C174.183 0 177.437 0.773907 180.264 2.26835C183.09 3.78947 185.26 5.8977 186.745 8.61972C188.229 11.3417 188.972 14.4374 188.972 17.96C188.972 21.4826 188.229 24.6316 186.745 27.3536C185.26 30.0756 183.119 32.1838 180.292 33.705C177.466 35.2261 174.126 35.9733 170.243 35.9733C166.36 36 162.905 35.2795 160.108 33.8918Z" fill="#111111"/>
<path d="M8.10816 14.3574L4.05408 17.9867L0 14.3574V0.587158H8.10816V14.3574Z" fill="#111111"/>
<path d="M95.0996 14.3574L91.0455 17.9867L86.9915 14.3574V0.587158H95.0996V14.3574Z" fill="#111111"/>
<path d="M146.09 14.3574L142.036 17.9867L137.981 14.3574V0.587158H146.09V14.3574Z" fill="#111111"/>
<path d="M137.981 21.6159L142.036 17.9866L146.09 21.6159V35.3861H137.981V21.6159Z" fill="#111111"/>
</g>
<defs>
<clipPath id="clip0_1_427">
<rect width="189" height="36" fill="white"/>
</clipPath>
</defs>
</svg>
